# xmcd CD database file
# Copyright (C) 1995-1998 Ti Kan
#
# Track frame offsets:
#	150
#	13972
#	31247
#	52862
#	68650
#	87000
#	100752
#	116687
#	134052
#	149970
#
# Disc length: 2181 seconds
#
# Revision: 1
# Processed by: cddbd v1.4b41PL2 Copyright (c) Steve Scherf et al.
# Submitted via: CDex 1.30Release
#
DISCID=8c08830a
DTITLE=Chris Cagle - Play It Loud
DYEAR=2000
DGENRE=Country
TTITLE0=My Love Goes On and On
TTITLE1=Laredo
TTITLE2=The Safe Side
TTITLE3=Country by the Grace of God
TTITLE4=Ton of Love
TTITLE5=Play It Loud
TTITLE6=Who Needs the Whiskey
TTITLE7=The Love Between a Woman and a Man
TTITLE8=Lovin' You Lovin' Me
TTITLE9=Rock the Boat
EXTD=YEAR: 2000 ID3G:   2
EXTT0=
EXTT1=
EXTT2=
EXTT3=
EXTT4=
EXTT5=
EXTT6=
EXTT7=
EXTT8=
EXTT9=
PLAYORDER=
